<svg width="792" height="972" viewBox="0 0 792 972" fill="none" xmlns="http://www.w3.org/2000/svg">
<path d="M13.5863 2.5333C10.1196 4.1333 6.65295 7.19997 4.25295 10.8L0.519615 16.5333L0.119615 226.533C-0.280385 438.533 0.119615 465.067 4.51962 500C18.3863 608 62.7863 706.533 136.253 791.333C151.186 808.667 182.253 839.6 199.186 854.133C228.12 878.8 272.253 910.133 304.52 928.667C332.386 944.8 385.72 970 395.186 971.6C399.853 972.4 419.453 964.133 451.853 948C524.92 911.467 597.586 856.933 646.786 801.733C718.92 720.933 762.92 633.467 781.72 533.333C789.853 490.133 791.853 459.6 791.853 378V318L634.253 160.4C547.453 73.6 476.12 2.66663 475.586 2.66663C474.92 2.66663 474.52 70.9333 474.52 154.267C474.52 301.067 474.653 306.133 477.186 311.6C478.92 315.467 481.72 318.533 485.986 321.333L492.386 325.333H598.253H704.12L703.453 396.267C702.653 470.267 702.12 479.6 695.853 514C678.786 608 636.653 688.267 568.52 756.8C523.853 801.733 477.72 834.267 412.253 867.2L397.586 874.533L373.053 862.133C345.186 848.133 331.586 840.267 307.853 824.533C241.72 780.667 185.853 720.667 147.853 652.8C120.653 604.133 101.32 543.867 93.853 485.2C89.9863 454.533 89.1863 415.2 89.1863 252.933V91.7333L216.92 92C341.853 92.4 344.786 92.2666 354.52 89.6C384.386 81.4666 405.053 68.5333 429.186 43.0666C439.453 32.2666 462.653 3.99997 463.586 1.3333C463.853 0.399966 385.986 -3.43996e-05 241.586 -3.43996e-05C25.9863 -3.43996e-05 19.053 0.133299 13.5863 2.5333Z" fill="#2196F3"/>
</svg>
